<?xml version="1.0" encoding="UTF-8" standalone="no"?>
<svg
   class="svg-logo"
   width="200"
   height="300"
   version="1.1"
   id="svg3"
   xmlns="http://www.w3.org/2000/svg"
   xmlns:svg="http://www.w3.org/2000/svg">
  <defs
     id="defs3" />
  <g
     data-element="wrapper"
     id="g3"
     transform="translate(-110.21613,-185.76718)">
    <g
       data-element="icon"
       id="g2">
      <path
         fill="rgba(84, 17, 145, 1)"
         d="m 184.638,202.074 a 4.3085,4.3085 0 1 1 0,-8.617 4.3085,4.3085 0 0 1 0,8.617 m -31.02,25.85 a 4.3085,4.3085 0 1 0 0,8.617 4.3085,4.3085 0 0 0 0,-8.617 M 142.415,215 a 4.3085,4.3085 0 1 0 -8.617,0 4.3085,4.3085 0 0 0 8.617,0"
         id="path1"
         style="mix-blend-mode:normal;fill:#541191;fill-opacity:1" />
      <path
         fill="rgba(177, 88, 254, 1)"
         d="m 194.116,197.766 c 0,-5.227 -4.252,-9.479 -9.478,-9.479 -5.226,0 -9.479,4.252 -9.479,9.479 a 9.4,9.4 0 0 0 1.013,4.254 l -3.7,4.111 a 9.4,9.4 0 0 0 -3.344,-0.61 c -5.227,0 -9.479,4.252 -9.479,9.478 a 9.4,9.4 0 0 0 1.012,4.254 l -3.7,4.112 c -1.04,-0.394 -2.167,-0.61 -3.344,-0.61 -1.177,0 -2.303,0.216 -3.343,0.61 l -3.7,-4.112 a 9.4,9.4 0 0 0 1.012,-4.254 c 0,-5.226 -4.252,-9.478 -9.479,-9.478 -5.227,0 -9.478,4.252 -9.478,9.478 a 9.4,9.4 0 0 0 1.012,4.254 l -3.7,4.112 a 9.4,9.4 0 0 0 -3.344,-0.61 c -5.226,0 -9.478,4.251 -9.478,9.478 0,5.227 4.252,9.478 9.478,9.478 5.226,0 9.478,-4.252 9.478,-9.478 a 9.4,9.4 0 0 0 -1.012,-4.255 l 3.7,-4.111 c 1.04,0.393 2.168,0.61 3.344,0.61 1.176,0 2.304,-0.217 3.344,-0.61 l 3.7,4.111 a 9.4,9.4 0 0 0 -1.012,4.255 c 0,5.226 4.252,9.478 9.478,9.478 5.226,0 9.479,-4.252 9.479,-9.478 a 9.4,9.4 0 0 0 -1.012,-4.255 l 3.7,-4.111 a 9.4,9.4 0 0 0 3.344,0.61 c 5.226,0 9.478,-4.252 9.478,-9.478 a 9.4,9.4 0 0 0 -1.012,-4.254 l 3.7,-4.112 a 9.4,9.4 0 0 0 3.344,0.611 c 5.226,0 9.478,-4.252 9.478,-9.478 m -9.478,4.308 a 4.3085,4.3085 0 1 1 0,-8.617 4.3085,4.3085 0 0 1 0,8.617 m -31.02,34.467 a 4.3085,4.3085 0 1 1 0,-8.617 4.3085,4.3085 0 0 1 0,8.617 m -19.82,-21.542 a 4.309,4.309 0 1 1 8.618,0 4.3085,4.3085 0 0 1 -8.617,0"
         id="path2"
         style="fill:#b158fe;fill-opacity:1" />
    </g>
  </g>
</svg>
