<!-- sample rectangle -->
<svg xmlns="http://www.w3.org/2000/svg" 
viewBox="0 0 630 430" 
class="svg-logo" 
width="630" 
height="430" 
style="height: auto;">
<g data-element="wrapper" transform="translate(31.499999999996945 21.499999999997897) scale(0.9000000000000097)">
  <g>
    <g data-element="icon" transform="scale(0.1595742210602531) translate(550.3095570114758 1047.3356421565627)">
      <path id="color_x5F_2_57_" fill="rgba(84, 17, 145, 1)" d="M516,210c-16.569,0-30-13.431-30-30s13.431-30,30-30s30,13.431,30,30    S532.569,210,516,210z M300,390c-16.569,0-30,13.431-30,30s13.431,30,30,30s30-13.431,30-30S316.569,390,300,390z M222,300    c0-16.569-13.431-30-30-30s-30,13.431-30,30s13.431,30,30,30S222,316.569,222,300z">
      </path> 
      <path id="color_x5F_1_57_" fill="rgba(177, 88, 254, 1)" d="M582,180c0-36.393-29.607-66-66-66s-66,29.607-66,66c0,10.65,2.551,20.709,7.05,29.625    l-25.766,28.629C424.038,235.512,416.194,234,408,234c-36.393,0-66,29.607-66,66c0,10.65,2.551,20.709,7.05,29.625l-25.766,28.629    C316.038,355.512,308.194,354,300,354s-16.038,1.512-23.283,4.254l-25.766-28.629C255.449,320.709,258,310.65,258,300    c0-36.393-29.607-66-66-66s-66,29.607-66,66c0,10.65,2.551,20.709,7.05,29.625l-25.766,28.629C100.038,355.512,92.194,354,84,354    c-36.393,0-66,29.607-66,66s29.607,66,66,66s66-29.607,66-66c0-10.65-2.551-20.709-7.05-29.625l25.766-28.629    C175.962,364.488,183.806,366,192,366s16.038-1.512,23.283-4.254l25.766,28.629C236.551,399.291,234,409.35,234,420    c0,36.393,29.607,66,66,66s66-29.607,66-66c0-10.65-2.551-20.709-7.05-29.625l25.766-28.629C391.962,364.488,399.806,366,408,366    c36.393,0,66-29.607,66-66c0-10.65-2.551-20.709-7.05-29.625l25.766-28.629C499.962,244.488,507.806,246,516,246    C552.393,246,582,216.393,582,180z M516,210c-16.569,0-30-13.431-30-30s13.431-30,30-30s30,13.431,30,30S532.569,210,516,210z     M300,450c-16.569,0-30-13.431-30-30s13.431-30,30-30s30,13.431,30,30S316.569,450,300,450z M162,300c0-16.569,13.431-30,30-30    s30,13.431,30,30s-13.431,30-30,30S162,316.569,162,300z">
      </path>
    </g> 
  </g>
</g>
</svg>