<svg xmlns="http://www.w3.org/2000/svg" class="svg-logo" width="200" height="300"><g data-element="wrapper"><g data-element="icon"><path fill="rgba(84, 17, 145, 1)" d="M184.638 202.074a4.308 4.308 0 1 1 0-8.617 4.308 4.308 0 0 1 0 8.617m-31.02 25.85a4.308 4.308 0 1 0 0 8.617 4.308 4.308 0 0 0 0-8.617M142.415 215a4.308 4.308 0 1 0-8.617 0 4.308 4.308 0 0 0 8.617 0"/><path fill="rgba(177, 88, 254, 1)" d="M194.116 197.766c0-5.227-4.252-9.479-9.478-9.479s-9.479 4.252-9.479 9.479a9.4 9.4 0 0 0 1.013 4.254l-3.7 4.111a9.4 9.4 0 0 0-3.344-.61c-5.227 0-9.479 4.252-9.479 9.478a9.4 9.4 0 0 0 1.012 4.254l-3.7 4.112c-1.04-.394-2.167-.61-3.344-.61s-2.303.216-3.343.61l-3.7-4.112a9.4 9.4 0 0 0 1.012-4.254c0-5.226-4.252-9.478-9.479-9.478s-9.478 4.252-9.478 9.478a9.4 9.4 0 0 0 1.012 4.254l-3.7 4.112a9.4 9.4 0 0 0-3.344-.61c-5.226 0-9.478 4.251-9.478 9.478s4.252 9.478 9.478 9.478 9.478-4.252 9.478-9.478a9.4 9.4 0 0 0-1.012-4.255l3.7-4.111c1.04.393 2.168.61 3.344.61s2.304-.217 3.344-.61l3.7 4.111a9.4 9.4 0 0 0-1.012 4.255c0 5.226 4.252 9.478 9.478 9.478s9.479-4.252 9.479-9.478a9.4 9.4 0 0 0-1.012-4.255l3.7-4.111a9.4 9.4 0 0 0 3.344.61c5.226 0 9.478-4.252 9.478-9.478a9.4 9.4 0 0 0-1.012-4.254l3.7-4.112a9.4 9.4 0 0 0 3.344.611c5.226 0 9.478-4.252 9.478-9.478m-9.478 4.308a4.308 4.308 0 1 1 0-8.617 4.308 4.308 0 0 1 0 8.617m-31.02 34.467a4.308 4.308 0 1 1 0-8.617 4.308 4.308 0 0 1 0 8.617m-19.82-21.542a4.308 4.308 0 1 1 8.618 0 4.308 4.308 0 0 1-8.617 0"/></g></g></svg>