<svg xml:space="preserve" width="80.997" height="53.424" xmlns="http://www.w3.org/2000/svg"><g data-element="icon"><path fill="rgba(84, 17, 145, 1)" d="M184.638 202.074a4.309 4.309 0 1 1 0-8.617 4.309 4.309 0 0 1 0 8.617m-31.02 25.85a4.309 4.309 0 1 0 0 8.617 4.309 4.309 0 0 0 0-8.617M142.415 215a4.309 4.309 0 1 0-8.617 0 4.309 4.309 0 0 0 8.617 0" style="mix-blend-mode:normal;fill:#541191;fill-opacity:1" transform="translate(-113.119 -188.287)"/><path fill="rgba(177, 88, 254, 1)" d="M194.116 197.766c0-5.227-4.252-9.479-9.478-9.479s-9.479 4.252-9.479 9.479a9.4 9.4 0 0 0 1.013 4.254l-3.7 4.111a9.4 9.4 0 0 0-3.344-.61c-5.227 0-9.479 4.252-9.479 9.478a9.4 9.4 0 0 0 1.012 4.254l-3.7 4.112a9.4 9.4 0 0 0-3.344-.61 9.4 9.4 0 0 0-3.343.61l-3.7-4.112a9.4 9.4 0 0 0 1.012-4.254c0-5.226-4.252-9.478-9.479-9.478s-9.478 4.252-9.478 9.478a9.4 9.4 0 0 0 1.012 4.254l-3.7 4.112a9.4 9.4 0 0 0-3.344-.61c-5.226 0-9.478 4.251-9.478 9.478s4.252 9.478 9.478 9.478 9.478-4.252 9.478-9.478a9.4 9.4 0 0 0-1.012-4.255l3.7-4.111c1.04.393 2.168.61 3.344.61a9.5 9.5 0 0 0 3.344-.61l3.7 4.111a9.4 9.4 0 0 0-1.012 4.255c0 5.226 4.252 9.478 9.478 9.478s9.479-4.252 9.479-9.478a9.4 9.4 0 0 0-1.012-4.255l3.7-4.111a9.4 9.4 0 0 0 3.344.61c5.226 0 9.478-4.252 9.478-9.478a9.4 9.4 0 0 0-1.012-4.254l3.7-4.112a9.4 9.4 0 0 0 3.344.611c5.226 0 9.478-4.252 9.478-9.478m-9.478 4.308a4.309 4.309 0 1 1 0-8.617 4.309 4.309 0 0 1 0 8.617m-31.02 34.467a4.309 4.309 0 1 1 0-8.617 4.309 4.309 0 0 1 0 8.617m-19.82-21.542a4.309 4.309 0 1 1 8.618 0 4.309 4.309 0 0 1-8.617 0" style="fill:#b158fe;fill-opacity:1" transform="translate(-113.119 -188.287)"/></g></svg>